<mxfile host="app.diagrams.net" modified="2022-09-20T14:45:57.457Z" agent="5.0 (Windows NT 10.0; Win64; x64) AppleWebKit/537.36 (KHTML, like Gecko) Chrome/105.0.0.0 Safari/537.36" etag="hXPPyI2icW6DgdgV0MS-" version="20.3.3" type="github">
  <diagram id="kRvHD2GlXKEN1Marm6bR" name="Página-1">
    <mxGraphModel dx="1247" dy="677" grid="1" gridSize="10" guides="1" tooltips="1" connect="1" arrows="1" fold="1" page="1" pageScale="1" pageWidth="827" pageHeight="1169" math="0" shadow="0">
      <root>
        <mxCell id="0" />
        <mxCell id="1" parent="0" />
        <mxCell id="Mf4Op65rAEukfJ672IiG-1" value="iniciar" style="rounded=1;whiteSpace=wrap;html=1;" vertex="1" parent="1">
          <mxGeometry x="340" y="40" width="120" height="60" as="geometry" />
        </mxCell>
        <mxCell id="Mf4Op65rAEukfJ672IiG-2" value="" style="endArrow=classic;html=1;rounded=0;exitX=0.5;exitY=1;exitDx=0;exitDy=0;" edge="1" parent="1" source="Mf4Op65rAEukfJ672IiG-1">
          <mxGeometry width="50" height="50" relative="1" as="geometry">
            <mxPoint x="390" y="420" as="sourcePoint" />
            <mxPoint x="400" y="160" as="targetPoint" />
          </mxGeometry>
        </mxCell>
        <mxCell id="Mf4Op65rAEukfJ672IiG-3" value="expLógica" style="rhombus;whiteSpace=wrap;html=1;" vertex="1" parent="1">
          <mxGeometry x="317.5" y="250" width="165" height="40" as="geometry" />
        </mxCell>
        <mxCell id="Mf4Op65rAEukfJ672IiG-10" value="" style="endArrow=none;html=1;rounded=0;" edge="1" parent="1">
          <mxGeometry width="50" height="50" relative="1" as="geometry">
            <mxPoint x="482.5" y="270" as="sourcePoint" />
            <mxPoint x="540" y="270" as="targetPoint" />
            <Array as="points">
              <mxPoint x="512.5" y="270" />
            </Array>
          </mxGeometry>
        </mxCell>
        <mxCell id="Mf4Op65rAEukfJ672IiG-12" style="edgeStyle=orthogonalEdgeStyle;rounded=0;orthogonalLoop=1;jettySize=auto;html=1;exitX=0.5;exitY=1;exitDx=0;exitDy=0;" edge="1" parent="1" source="Mf4Op65rAEukfJ672IiG-3" target="Mf4Op65rAEukfJ672IiG-3">
          <mxGeometry relative="1" as="geometry" />
        </mxCell>
        <mxCell id="Mf4Op65rAEukfJ672IiG-13" value="" style="endArrow=none;html=1;rounded=0;startArrow=none;" edge="1" parent="1">
          <mxGeometry width="50" height="50" relative="1" as="geometry">
            <mxPoint x="512.5" y="270" as="sourcePoint" />
            <mxPoint x="540" y="270" as="targetPoint" />
            <Array as="points">
              <mxPoint x="512.5" y="270" />
            </Array>
          </mxGeometry>
        </mxCell>
        <mxCell id="Mf4Op65rAEukfJ672IiG-14" value="" style="endArrow=none;html=1;rounded=0;" edge="1" parent="1">
          <mxGeometry width="50" height="50" relative="1" as="geometry">
            <mxPoint x="260" y="269.71" as="sourcePoint" />
            <mxPoint x="317.5" y="269.71" as="targetPoint" />
            <Array as="points">
              <mxPoint x="290" y="269.71" />
            </Array>
          </mxGeometry>
        </mxCell>
        <mxCell id="Mf4Op65rAEukfJ672IiG-16" value="" style="endArrow=none;html=1;rounded=0;" edge="1" parent="1">
          <mxGeometry width="50" height="50" relative="1" as="geometry">
            <mxPoint x="260" y="330" as="sourcePoint" />
            <mxPoint x="260" y="270" as="targetPoint" />
          </mxGeometry>
        </mxCell>
        <mxCell id="Mf4Op65rAEukfJ672IiG-19" style="edgeStyle=orthogonalEdgeStyle;rounded=0;orthogonalLoop=1;jettySize=auto;html=1;exitX=0.5;exitY=1;exitDx=0;exitDy=0;" edge="1" parent="1" source="Mf4Op65rAEukfJ672IiG-17" target="Mf4Op65rAEukfJ672IiG-17">
          <mxGeometry relative="1" as="geometry" />
        </mxCell>
        <mxCell id="Mf4Op65rAEukfJ672IiG-21" value="" style="endArrow=none;html=1;rounded=0;" edge="1" parent="1">
          <mxGeometry width="50" height="50" relative="1" as="geometry">
            <mxPoint x="540" y="330" as="sourcePoint" />
            <mxPoint x="260" y="330" as="targetPoint" />
            <Array as="points" />
          </mxGeometry>
        </mxCell>
        <mxCell id="Mf4Op65rAEukfJ672IiG-17" value="acciones A" style="rounded=0;whiteSpace=wrap;html=1;" vertex="1" parent="1">
          <mxGeometry x="482.5" y="290" width="120" height="20" as="geometry" />
        </mxCell>
        <mxCell id="Mf4Op65rAEukfJ672IiG-23" value="" style="endArrow=classic;html=1;rounded=0;" edge="1" parent="1">
          <mxGeometry width="50" height="50" relative="1" as="geometry">
            <mxPoint x="540" y="270" as="sourcePoint" />
            <mxPoint x="540" y="290" as="targetPoint" />
            <Array as="points">
              <mxPoint x="540" y="290" />
            </Array>
          </mxGeometry>
        </mxCell>
        <mxCell id="Mf4Op65rAEukfJ672IiG-25" value="" style="endArrow=none;html=1;rounded=0;exitX=0.479;exitY=1.025;exitDx=0;exitDy=0;exitPerimeter=0;" edge="1" parent="1" source="Mf4Op65rAEukfJ672IiG-17">
          <mxGeometry width="50" height="50" relative="1" as="geometry">
            <mxPoint x="380" y="350" as="sourcePoint" />
            <mxPoint x="540" y="330" as="targetPoint" />
          </mxGeometry>
        </mxCell>
        <mxCell id="Mf4Op65rAEukfJ672IiG-26" value="" style="endArrow=classic;html=1;rounded=0;entryX=0.5;entryY=0;entryDx=0;entryDy=0;" edge="1" parent="1" target="Mf4Op65rAEukfJ672IiG-3">
          <mxGeometry width="50" height="50" relative="1" as="geometry">
            <mxPoint x="400" y="210" as="sourcePoint" />
            <mxPoint x="430" y="290" as="targetPoint" />
          </mxGeometry>
        </mxCell>
        <mxCell id="Mf4Op65rAEukfJ672IiG-29" value="" style="endArrow=none;html=1;rounded=0;" edge="1" parent="1">
          <mxGeometry width="50" height="50" relative="1" as="geometry">
            <mxPoint x="482.5" y="270" as="sourcePoint" />
            <mxPoint x="482.5" y="270" as="targetPoint" />
            <Array as="points" />
          </mxGeometry>
        </mxCell>
        <mxCell id="Mf4Op65rAEukfJ672IiG-30" value="falso" style="text;html=1;align=center;verticalAlign=middle;resizable=0;points=[];autosize=1;strokeColor=none;fillColor=none;fontSize=9;" vertex="1" parent="1">
          <mxGeometry x="270" y="250" width="40" height="20" as="geometry" />
        </mxCell>
        <mxCell id="Mf4Op65rAEukfJ672IiG-32" value="verdadero" style="text;html=1;align=center;verticalAlign=middle;resizable=0;points=[];autosize=1;strokeColor=none;fillColor=none;fontSize=9;" vertex="1" parent="1">
          <mxGeometry x="490" y="250" width="60" height="20" as="geometry" />
        </mxCell>
        <mxCell id="Mf4Op65rAEukfJ672IiG-34" value="" style="endArrow=classic;html=1;rounded=0;fontSize=9;" edge="1" parent="1">
          <mxGeometry width="50" height="50" relative="1" as="geometry">
            <mxPoint x="399.76" y="330" as="sourcePoint" />
            <mxPoint x="399.76" y="360" as="targetPoint" />
          </mxGeometry>
        </mxCell>
        <mxCell id="Mf4Op65rAEukfJ672IiG-51" value="expLógica" style="rhombus;whiteSpace=wrap;html=1;" vertex="1" parent="1">
          <mxGeometry x="317.5" y="450" width="165" height="40" as="geometry" />
        </mxCell>
        <mxCell id="Mf4Op65rAEukfJ672IiG-52" value="" style="endArrow=none;html=1;rounded=0;" edge="1" parent="1">
          <mxGeometry width="50" height="50" relative="1" as="geometry">
            <mxPoint x="482.5" y="470" as="sourcePoint" />
            <mxPoint x="540" y="470" as="targetPoint" />
            <Array as="points">
              <mxPoint x="512.5" y="470" />
            </Array>
          </mxGeometry>
        </mxCell>
        <mxCell id="Mf4Op65rAEukfJ672IiG-53" style="edgeStyle=orthogonalEdgeStyle;rounded=0;orthogonalLoop=1;jettySize=auto;html=1;exitX=0.5;exitY=1;exitDx=0;exitDy=0;" edge="1" parent="1" source="Mf4Op65rAEukfJ672IiG-51" target="Mf4Op65rAEukfJ672IiG-51">
          <mxGeometry relative="1" as="geometry" />
        </mxCell>
        <mxCell id="Mf4Op65rAEukfJ672IiG-54" value="" style="endArrow=none;html=1;rounded=0;startArrow=none;" edge="1" parent="1">
          <mxGeometry width="50" height="50" relative="1" as="geometry">
            <mxPoint x="512.5" y="470" as="sourcePoint" />
            <mxPoint x="540" y="470" as="targetPoint" />
            <Array as="points">
              <mxPoint x="512.5" y="470" />
            </Array>
          </mxGeometry>
        </mxCell>
        <mxCell id="Mf4Op65rAEukfJ672IiG-55" value="" style="endArrow=none;html=1;rounded=0;" edge="1" parent="1">
          <mxGeometry width="50" height="50" relative="1" as="geometry">
            <mxPoint x="260" y="469.71000000000004" as="sourcePoint" />
            <mxPoint x="317.5" y="469.71000000000004" as="targetPoint" />
            <Array as="points">
              <mxPoint x="290" y="469.71" />
            </Array>
          </mxGeometry>
        </mxCell>
        <mxCell id="Mf4Op65rAEukfJ672IiG-57" style="edgeStyle=orthogonalEdgeStyle;rounded=0;orthogonalLoop=1;jettySize=auto;html=1;exitX=0.5;exitY=1;exitDx=0;exitDy=0;" edge="1" parent="1" source="Mf4Op65rAEukfJ672IiG-59" target="Mf4Op65rAEukfJ672IiG-59">
          <mxGeometry relative="1" as="geometry" />
        </mxCell>
        <mxCell id="Mf4Op65rAEukfJ672IiG-58" value="" style="endArrow=none;html=1;rounded=0;" edge="1" parent="1">
          <mxGeometry width="50" height="50" relative="1" as="geometry">
            <mxPoint x="540" y="530" as="sourcePoint" />
            <mxPoint x="260" y="530" as="targetPoint" />
            <Array as="points" />
          </mxGeometry>
        </mxCell>
        <mxCell id="Mf4Op65rAEukfJ672IiG-59" value="acciones A" style="rounded=0;whiteSpace=wrap;html=1;" vertex="1" parent="1">
          <mxGeometry x="482.5" y="490" width="120" height="20" as="geometry" />
        </mxCell>
        <mxCell id="Mf4Op65rAEukfJ672IiG-60" value="" style="endArrow=classic;html=1;rounded=0;" edge="1" parent="1">
          <mxGeometry width="50" height="50" relative="1" as="geometry">
            <mxPoint x="540" y="470" as="sourcePoint" />
            <mxPoint x="540" y="490" as="targetPoint" />
            <Array as="points">
              <mxPoint x="540" y="490" />
            </Array>
          </mxGeometry>
        </mxCell>
        <mxCell id="Mf4Op65rAEukfJ672IiG-61" value="" style="endArrow=none;html=1;rounded=0;exitX=0.479;exitY=1.025;exitDx=0;exitDy=0;exitPerimeter=0;" edge="1" parent="1" source="Mf4Op65rAEukfJ672IiG-59">
          <mxGeometry width="50" height="50" relative="1" as="geometry">
            <mxPoint x="380" y="550" as="sourcePoint" />
            <mxPoint x="540" y="530" as="targetPoint" />
          </mxGeometry>
        </mxCell>
        <mxCell id="Mf4Op65rAEukfJ672IiG-62" value="" style="endArrow=classic;html=1;rounded=0;entryX=0.5;entryY=0;entryDx=0;entryDy=0;" edge="1" parent="1" target="Mf4Op65rAEukfJ672IiG-51">
          <mxGeometry width="50" height="50" relative="1" as="geometry">
            <mxPoint x="400" y="410" as="sourcePoint" />
            <mxPoint x="430" y="490" as="targetPoint" />
          </mxGeometry>
        </mxCell>
        <mxCell id="Mf4Op65rAEukfJ672IiG-63" value="" style="endArrow=none;html=1;rounded=0;" edge="1" parent="1">
          <mxGeometry width="50" height="50" relative="1" as="geometry">
            <mxPoint x="482.5" y="470" as="sourcePoint" />
            <mxPoint x="482.5" y="470" as="targetPoint" />
            <Array as="points" />
          </mxGeometry>
        </mxCell>
        <mxCell id="Mf4Op65rAEukfJ672IiG-64" value="falso" style="text;html=1;align=center;verticalAlign=middle;resizable=0;points=[];autosize=1;strokeColor=none;fillColor=none;fontSize=9;" vertex="1" parent="1">
          <mxGeometry x="270" y="450" width="40" height="20" as="geometry" />
        </mxCell>
        <mxCell id="Mf4Op65rAEukfJ672IiG-65" value="verdadero" style="text;html=1;align=center;verticalAlign=middle;resizable=0;points=[];autosize=1;strokeColor=none;fillColor=none;fontSize=9;" vertex="1" parent="1">
          <mxGeometry x="490" y="450" width="60" height="20" as="geometry" />
        </mxCell>
        <mxCell id="Mf4Op65rAEukfJ672IiG-66" value="" style="endArrow=classic;html=1;rounded=0;fontSize=9;" edge="1" parent="1">
          <mxGeometry width="50" height="50" relative="1" as="geometry">
            <mxPoint x="399.76" y="530" as="sourcePoint" />
            <mxPoint x="399.76" y="560" as="targetPoint" />
          </mxGeometry>
        </mxCell>
        <mxCell id="Mf4Op65rAEukfJ672IiG-68" value="acciones B" style="rounded=0;whiteSpace=wrap;html=1;" vertex="1" parent="1">
          <mxGeometry x="210" y="490" width="120" height="20" as="geometry" />
        </mxCell>
        <mxCell id="Mf4Op65rAEukfJ672IiG-70" value="" style="endArrow=classic;html=1;rounded=0;fontSize=9;entryX=0.419;entryY=0.044;entryDx=0;entryDy=0;entryPerimeter=0;" edge="1" parent="1" target="Mf4Op65rAEukfJ672IiG-68">
          <mxGeometry width="50" height="50" relative="1" as="geometry">
            <mxPoint x="260" y="470" as="sourcePoint" />
            <mxPoint x="500" y="430" as="targetPoint" />
          </mxGeometry>
        </mxCell>
        <mxCell id="Mf4Op65rAEukfJ672IiG-71" value="" style="endArrow=none;html=1;rounded=0;fontSize=9;" edge="1" parent="1">
          <mxGeometry width="50" height="50" relative="1" as="geometry">
            <mxPoint x="260" y="530" as="sourcePoint" />
            <mxPoint x="260" y="510" as="targetPoint" />
          </mxGeometry>
        </mxCell>
      </root>
    </mxGraphModel>
  </diagram>
</mxfile>
